# xmcd
#
# Track frame offsets:
#	210
#	26610
#	47090
#	65287
#	81405
#	104877
#	126055
#	146480
#
# Disc length: 2179 seconds
#
# Revision: 0
# Processed by: cddbd v1.4PL0 Copyright (c) Steve Scherf et al.
# Submitted via: audiograbber 1.81.02
#
DISCID=70088108
DTITLE=Woody Herman - Road Father 
DYEAR=1978
DGENRE=Blues
TTITLE0=Fire Dance
TTITLE1=Duke Ellingtons Sound Of Love
TTITLE2=Woodchoppers Ball
TTITLE3=Sunrise Lady
TTITLE4=Pavane
TTITLE5=I Got News For You
TTITLE6=Sugar Loaf Mountain
TTITLE7=Isnt She Lovely
EXTD=
EXTT0=
EXTT1=
EXTT2=
EXTT3=
EXTT4=
EXTT5=
EXTT6=
EXTT7=
PLAYORDER=
